<svg width="76" height="17" viewBox="0 0 76 17" fill="none" xmlns="http://www.w3.org/2000/svg">
<path d="M47.5259 2.20098V4.492H46.0898V5.99444H47.5259V11.0994C47.5259 12.8426 48.3145 13.5398 50.2983 13.5398C50.647 13.5398 50.979 13.4983 51.2695 13.4485V11.9627C51.0205 11.9876 50.8628 12.0042 50.5889 12.0042C49.7007 12.0042 49.3106 11.5892 49.3106 10.6429V5.99444H51.2695V4.492H49.3106V2.20098H47.5259Z" fill="white"/>
<path d="M56.3234 13.6644C58.963 13.6644 60.5817 11.8963 60.5817 8.96612C60.5817 6.05254 58.9547 4.27618 56.3234 4.27618C53.6837 4.27618 52.0568 6.05254 52.0568 8.96612C52.0568 11.8963 53.6754 13.6644 56.3234 13.6644ZM56.3234 12.0789C54.7711 12.0789 53.8996 10.9417 53.8996 8.96612C53.8996 7.00713 54.7711 5.86163 56.3234 5.86163C57.8673 5.86163 58.7472 7.00713 58.7472 8.96612C58.7472 10.9334 57.8673 12.0789 56.3234 12.0789Z" fill="white"/>
<path d="M61.9666 13.49H63.7513V8.15264C63.7513 6.88262 64.7058 6.02764 66.0589 6.02764C66.3743 6.02764 66.9055 6.08575 67.055 6.13555V4.37579C66.864 4.32598 66.5237 4.30108 66.2581 4.30108C65.0794 4.30108 64.075 4.94854 63.8177 5.83672H63.6848V4.45049H61.9666V13.49Z" fill="white"/>
<path d="M71.4863 5.79522C72.8061 5.79522 73.6694 6.71661 73.7109 8.13604H69.1454C69.245 6.72491 70.1664 5.79522 71.4863 5.79522ZM73.7026 11.0496C73.3705 11.7552 72.6318 12.1453 71.5527 12.1453C70.1249 12.1453 69.2035 11.1409 69.1454 9.55547V9.45586H75.5287V8.83331C75.5287 5.99444 74.0097 4.27618 71.4946 4.27618C68.9462 4.27618 67.3276 6.11065 67.3276 8.99932C67.3276 11.888 68.913 13.6644 71.5029 13.6644C73.5697 13.6644 75.0141 12.6683 75.4208 11.0496H73.7026Z" fill="white"/>
<path d="M35.8223 10.1519C35.96 12.3716 37.8097 13.7912 40.5628 13.7912C43.5052 13.7912 45.3464 12.3028 45.3464 9.92819C45.3464 8.06123 44.2968 7.0288 41.7501 6.43516L40.3822 6.09962C38.7647 5.72107 38.1108 5.21346 38.1108 4.3273C38.1108 3.20884 39.126 2.47754 40.6489 2.47754C42.0943 2.47754 43.0923 3.19164 43.2729 4.3359H45.1485C45.0367 2.24525 43.1955 0.774048 40.6747 0.774048C37.9646 0.774048 36.1578 2.24525 36.1578 4.45635C36.1578 6.2803 37.1817 7.36434 39.4272 7.88916L41.0274 8.27631C42.6707 8.66347 43.3934 9.2313 43.3934 10.1777C43.3934 11.2789 42.2577 12.0791 40.7091 12.0791C39.0486 12.0791 37.8957 11.3306 37.7323 10.1519H35.8223Z" fill="white"/>
<path d="M17.335 4.30108C16.1064 4.30108 15.0439 4.91534 14.4961 5.94463H14.3633V4.45049H12.645V16.4949H14.4297V12.1204H14.5708C15.0439 13.075 16.0649 13.6395 17.3516 13.6395C19.6343 13.6395 21.0869 11.8382 21.0869 8.96612C21.0869 6.09405 19.6343 4.30108 17.335 4.30108ZM16.8286 12.0374C15.3345 12.0374 14.3965 10.8587 14.3965 8.97442C14.3965 7.08184 15.3345 5.90313 16.8369 5.90313C18.3477 5.90313 19.2524 7.05694 19.2524 8.96612C19.2524 10.8836 18.3477 12.0374 16.8286 12.0374Z" fill="white"/>
<path d="M27.3318 4.30108C26.1032 4.30108 25.0407 4.91534 24.4929 5.94463H24.3601V4.45049H22.6418V16.4949H24.4265V12.1204H24.5676C25.0407 13.075 26.0617 13.6395 27.3484 13.6395C29.6311 13.6395 31.0837 11.8382 31.0837 8.96612C31.0837 6.09405 29.6311 4.30108 27.3318 4.30108ZM26.8254 12.0374C25.3313 12.0374 24.3933 10.8587 24.3933 8.97442C24.3933 7.08184 25.3313 5.90313 26.8337 5.90313C28.3445 5.90313 29.2492 7.05694 29.2492 8.96612C29.2492 10.8836 28.3445 12.0374 26.8254 12.0374Z" fill="white"/>
<path d="M9.44302 13.49H11.4907L7.00823 1.07517H4.93478L0.452347 13.49H2.43116L3.57542 10.1949H8.30736L9.44302 13.49ZM5.87256 3.32929H6.01882L7.81696 8.57744H4.06582L5.87256 3.32929Z" fill="white"/>
</svg>
