<svg width="70" height="7" viewBox="0 0 70 7" fill="none" xmlns="http://www.w3.org/2000/svg">
<path d="M0.651123 0.710938V6.69995H2.81348C4.59814 6.69995 5.63159 5.6001 5.63159 3.68677C5.63159 1.80249 4.58984 0.710938 2.81348 0.710938H0.651123ZM1.58081 1.55762H2.70972C3.95068 1.55762 4.6853 2.34619 4.6853 3.69922C4.6853 5.073 3.96313 5.85327 2.70972 5.85327H1.58081V1.55762Z" fill="white"/>
<path d="M8.79668 6.78711C10.1165 6.78711 10.9258 5.90308 10.9258 4.43799C10.9258 2.9812 10.1124 2.09302 8.79668 2.09302C7.47686 2.09302 6.66338 2.9812 6.66338 4.43799C6.66338 5.90308 7.4727 6.78711 8.79668 6.78711ZM8.79668 5.99438C8.02056 5.99438 7.58477 5.42578 7.58477 4.43799C7.58477 3.4585 8.02056 2.88574 8.79668 2.88574C9.56865 2.88574 10.0086 3.4585 10.0086 4.43799C10.0086 5.42163 9.56865 5.99438 8.79668 5.99438Z" fill="white"/>
<path d="M17.818 2.18018H16.9256L16.1205 5.62915H16.0499L15.1202 2.18018H14.2652L13.3355 5.62915H13.2691L12.4598 2.18018H11.555L12.8001 6.69995H13.7174L14.6471 3.37134H14.7176L15.6515 6.69995H16.577L17.818 2.18018Z" fill="white"/>
<path d="M18.8456 6.69995H19.7379V4.05615C19.7379 3.35059 20.1571 2.91064 20.817 2.91064C21.477 2.91064 21.7924 3.27173 21.7924 3.99805V6.69995H22.6847V3.77393C22.6847 2.69897 22.1286 2.09302 21.12 2.09302C20.4394 2.09302 19.9911 2.396 19.7711 2.89819H19.7047V2.18018H18.8456V6.69995Z" fill="white"/>
<path d="M24.09 6.69995H24.9824V0.41626H24.09V6.69995Z" fill="white"/>
<path d="M28.3384 6.78711C29.6582 6.78711 30.4675 5.90308 30.4675 4.43799C30.4675 2.9812 29.6541 2.09302 28.3384 2.09302C27.0186 2.09302 26.2051 2.9812 26.2051 4.43799C26.2051 5.90308 27.0144 6.78711 28.3384 6.78711ZM28.3384 5.99438C27.5623 5.99438 27.1265 5.42578 27.1265 4.43799C27.1265 3.4585 27.5623 2.88574 28.3384 2.88574C29.1104 2.88574 29.5503 3.4585 29.5503 4.43799C29.5503 5.42163 29.1104 5.99438 28.3384 5.99438Z" fill="white"/>
<path d="M33.1263 6.02344C32.6407 6.02344 32.2879 5.78687 32.2879 5.38013C32.2879 4.98169 32.5701 4.77002 33.1927 4.72852L34.2967 4.65796V5.03564C34.2967 5.59595 33.7986 6.02344 33.1263 6.02344ZM32.898 6.77466C33.4915 6.77466 33.9854 6.51733 34.2552 6.06494H34.3257V6.69995H35.1849V3.61206C35.1849 2.65747 34.5457 2.09302 33.4126 2.09302C32.3875 2.09302 31.657 2.59106 31.5657 3.36719H32.429C32.5286 3.04761 32.8731 2.86499 33.3711 2.86499C33.9812 2.86499 34.2967 3.13477 34.2967 3.61206V4.0022L33.0723 4.07275C31.9974 4.13916 31.3914 4.60815 31.3914 5.42163C31.3914 6.24756 32.0264 6.77466 32.898 6.77466Z" fill="white"/>
<path d="M38.213 6.77466C38.8355 6.77466 39.3626 6.47998 39.6324 5.98608H39.703V6.69995H40.558V0.41626H39.6656V2.89819H39.5992C39.3543 2.40015 38.8314 2.10547 38.213 2.10547C37.0716 2.10547 36.337 3.01025 36.337 4.43799C36.337 5.86987 37.0633 6.77466 38.213 6.77466ZM38.4662 2.90649C39.2132 2.90649 39.6822 3.5 39.6822 4.44214C39.6822 5.38843 39.2174 5.97363 38.4662 5.97363C37.7108 5.97363 37.2584 5.39673 37.2584 4.43799C37.2584 3.48755 37.7149 2.90649 38.4662 2.90649Z" fill="white"/>
<path d="M46.3444 6.78711C47.6643 6.78711 48.4736 5.90308 48.4736 4.43799C48.4736 2.9812 47.6601 2.09302 46.3444 2.09302C45.0246 2.09302 44.2111 2.9812 44.2111 4.43799C44.2111 5.90308 45.0205 6.78711 46.3444 6.78711ZM46.3444 5.99438C45.5683 5.99438 45.1325 5.42578 45.1325 4.43799C45.1325 3.4585 45.5683 2.88574 46.3444 2.88574C47.1164 2.88574 47.5563 3.4585 47.5563 4.43799C47.5563 5.42163 47.1164 5.99438 46.3444 5.99438Z" fill="white"/>
<path d="M49.6548 6.69995H50.5471V4.05615C50.5471 3.35059 50.9663 2.91064 51.6262 2.91064C52.2861 2.91064 52.6016 3.27173 52.6016 3.99805V6.69995H53.4939V3.77393C53.4939 2.69897 52.9377 2.09302 51.9292 2.09302C51.2485 2.09302 50.8003 2.396 50.5803 2.89819H50.5139V2.18018H49.6548V6.69995Z" fill="white"/>
<path d="M57.6036 1.05542V2.20093H56.8856V2.95215H57.6036V5.50464C57.6036 6.37622 57.9979 6.72485 58.9898 6.72485C59.1642 6.72485 59.3302 6.7041 59.4754 6.6792V5.93628C59.3509 5.94873 59.2721 5.95703 59.1351 5.95703C58.691 5.95703 58.4959 5.74951 58.4959 5.27637V2.95215H59.4754V2.20093H58.4959V1.05542H57.6036Z" fill="white"/>
<path d="M60.6732 6.69995H61.5656V4.0603C61.5656 3.37549 61.9723 2.91479 62.7028 2.91479C63.3336 2.91479 63.6698 3.28003 63.6698 4.0022V6.69995H64.5622V3.78223C64.5622 2.70728 63.9687 2.09717 63.0058 2.09717C62.3251 2.09717 61.8478 2.40015 61.6278 2.90649H61.5573V0.41626H60.6732V6.69995Z" fill="white"/>
<path d="M67.7812 2.85254C68.4411 2.85254 68.8727 3.31323 68.8935 4.02295H66.6108C66.6606 3.31738 67.1213 2.85254 67.7812 2.85254ZM68.8894 5.47974C68.7233 5.83252 68.354 6.02759 67.8144 6.02759C67.1005 6.02759 66.6398 5.52539 66.6108 4.73267V4.68286H69.8024V4.37158C69.8024 2.95215 69.0429 2.09302 67.7853 2.09302C66.5112 2.09302 65.7019 3.01025 65.7019 4.45459C65.7019 5.89893 66.4946 6.78711 67.7895 6.78711C68.8229 6.78711 69.5451 6.28906 69.7485 5.47974H68.8894Z" fill="white"/>
</svg>
